<svg width="17" height="17" viewBox="0 0 17 17" fill="none" xmlns="http://www.w3.org/2000/svg">
<path d="M13.8333 4.83366V7.32533C13.8333 7.32533 12.175 7.33366 12.1667 7.32533V4.83366H9.66667C9.66667 4.83366 9.675 3.17533 9.66667 3.16699H12.1667V0.666992H13.8333V3.16699H16.3333V4.83366H13.8333ZM11.3333 8.16699V5.66699H8.83333V3.16699H2.16667C1.25 3.16699 0.5 3.91699 0.5 4.83366V14.8337C0.5 15.7503 1.25 16.5003 2.16667 16.5003H12.1667C13.0833 16.5003 13.8333 15.7503 13.8333 14.8337V8.16699H11.3333ZM2.16667 14.8337L4.66667 11.5003L6.33333 14.0003L8.83333 10.667L12.1667 14.8337H2.16667Z" fill="#A63A50"/>
</svg>
