<svg width="40" height="40" viewBox="0 0 40 40" fill="none" xmlns="http://www.w3.org/2000/svg">
<rect width="40" height="40" rx="20" fill="#FFF2F2"/>
<g clip-path="url(#clip0_2_3504)">
<path d="M19.2232 27.2905L19.2217 27.2892C16.6266 24.936 14.5538 23.0538 13.1178 21.2981C11.6932 19.5565 11 18.0615 11 16.5C11 13.9723 12.9723 12 15.5 12C16.9372 12 18.3322 12.6739 19.2386 13.7383L20 14.6324L20.7614 13.7383C21.6678 12.6739 23.0628 12 24.5 12C27.0277 12 29 13.9723 29 16.5C29 18.0615 28.3068 19.5565 26.882 21.2996C25.4459 23.0566 23.3734 24.9409 20.7786 27.2989C20.7782 27.2993 20.7778 27.2996 20.7775 27.2999L20.0026 28L19.2232 27.2905Z" stroke="#A63A50" stroke-width="2"/>
</g>
<g clip-path="url(#clip1_2_3504)">
<path d="M19.2232 27.2905L19.2217 27.2892C16.6266 24.936 14.5538 23.0538 13.1178 21.2981C11.6932 19.5565 11 18.0615 11 16.5C11 13.9723 12.9723 12 15.5 12C16.9372 12 18.3322 12.6739 19.2386 13.7383L20 14.6324L20.7614 13.7383C21.6678 12.6739 23.0628 12 24.5 12C27.0277 12 29 13.9723 29 16.5C29 18.0615 28.3068 19.5565 26.882 21.2996C25.4459 23.0566 23.3734 24.9409 20.7786 27.2989C20.7782 27.2993 20.7778 27.2996 20.7775 27.2999L20.0026 28L19.2232 27.2905Z" stroke="#A63A50" stroke-width="2"/>
</g>
<defs>
<clipPath id="clip0_2_3504">
<rect width="24" height="24" fill="white" transform="translate(8 8)"/>
</clipPath>
<clipPath id="clip1_2_3504">
<rect width="24" height="24" fill="white" transform="translate(8 8)"/>
</clipPath>
</defs>
</svg>
