<svg width="30" height="30" viewBox="0 0 30 30" fill="none" xmlns="http://www.w3.org/2000/svg">
<rect width="30" height="30" rx="15" fill="#FFF2F2"/>
<g clip-path="url(#clip0_230_8357)">
<path d="M15 8.75C12.5813 8.75 10.625 10.7063 10.625 13.125C10.625 14.2125 10.9375 15.2313 11.5062 16.15C12.1 17.1125 12.8812 17.9375 13.4812 18.9C13.775 19.3687 13.9875 19.8062 14.2125 20.3125C14.375 20.6562 14.5062 21.25 15 21.25C15.4938 21.25 15.625 20.6562 15.7812 20.3125C16.0125 19.8062 16.2188 19.3687 16.5125 18.9C17.1125 17.9437 17.8938 17.1187 18.4875 16.15C19.0625 15.2313 19.375 14.2125 19.375 13.125C19.375 10.7063 17.4187 8.75 15 8.75ZM15 14.8438C14.1375 14.8438 13.4375 14.1438 13.4375 13.2812C13.4375 12.4188 14.1375 11.7188 15 11.7188C15.8625 11.7188 16.5625 12.4188 16.5625 13.2812C16.5625 14.1438 15.8625 14.8438 15 14.8438Z" fill="#A63A50"/>
</g>
<defs>
<clipPath id="clip0_230_8357">
<rect width="15" height="15" fill="white" transform="translate(7.5 7.5)"/>
</clipPath>
</defs>
</svg>
