<svg width="35" height="35" viewBox="0 0 35 35" fill="none" xmlns="http://www.w3.org/2000/svg">
<path fill-rule="evenodd" clip-rule="evenodd" d="M17.5 0C7.83502 0 0 7.83502 0 17.5C0 27.165 7.83502 35 17.5 35C27.165 35 35 27.165 35 17.5C35 7.83502 27.165 0 17.5 0ZM13.6524 8.22306C14.648 8.17775 14.9661 8.16667 17.5009 8.16667H17.498C20.0335 8.16667 20.3505 8.17775 21.3461 8.22306C22.3397 8.26856 23.0183 8.42586 23.6133 8.65667C24.2278 8.89487 24.7469 9.21376 25.2661 9.73293C25.7853 10.2517 26.1042 10.7724 26.3433 11.3863C26.5728 11.9798 26.7303 12.658 26.7769 13.6516C26.8217 14.6472 26.8333 14.9653 26.8333 17.5001C26.8333 20.0349 26.8217 20.3522 26.7769 21.3478C26.7303 22.341 26.5728 23.0195 26.3433 23.6131C26.1042 24.2268 25.7853 24.7475 25.2661 25.2663C24.7475 25.7855 24.2276 26.1051 23.6139 26.3435C23.02 26.5743 22.341 26.7316 21.3474 26.7771C20.3519 26.8224 20.0347 26.8335 17.4997 26.8335C14.9651 26.8335 14.6472 26.8224 13.6516 26.7771C12.6582 26.7316 11.9798 26.5743 11.3859 26.3435C10.7724 26.1051 10.2517 25.7855 9.73313 25.2663C9.21415 24.7475 8.89526 24.2268 8.65667 23.6129C8.42606 23.0195 8.26875 22.3412 8.22306 21.3476C8.17794 20.352 8.16667 20.0349 8.16667 17.5001C8.16667 14.9653 8.17833 14.647 8.22286 13.6514C8.26758 12.6582 8.42509 11.9798 8.65648 11.3861C8.89565 10.7724 9.21454 10.2517 9.73371 9.73293C10.2525 9.21395 10.7732 8.89506 11.3871 8.65667C11.9805 8.42586 12.6588 8.26856 13.6524 8.22306Z" fill="#43607C"/>
<path fill-rule="evenodd" clip-rule="evenodd" d="M16.6638 9.84804C16.8264 9.84778 17.0013 9.84786 17.19 9.84795L17.5011 9.84804C19.9931 9.84804 20.2885 9.85698 21.2726 9.9017C22.1826 9.94332 22.6765 10.0954 23.0055 10.2231C23.441 10.3923 23.7516 10.5945 24.078 10.9212C24.4047 11.2479 24.6069 11.559 24.7765 11.9945C24.9042 12.3231 25.0565 12.817 25.0979 13.727C25.1426 14.7109 25.1524 15.0065 25.1524 17.4974C25.1524 19.9882 25.1426 20.2838 25.0979 21.2677C25.0563 22.1777 24.9042 22.6716 24.7765 23.0002C24.6073 23.4358 24.4047 23.7459 24.078 24.0724C23.7514 24.3991 23.4412 24.6013 23.0055 24.7704C22.6769 24.8988 22.1826 25.0504 21.2726 25.0921C20.2887 25.1368 19.9931 25.1465 17.5011 25.1465C15.0089 25.1465 14.7135 25.1368 13.7296 25.0921C12.8196 25.0501 12.3257 24.898 11.9965 24.7702C11.5609 24.6011 11.2498 24.3989 10.9231 24.0722C10.5965 23.7455 10.3943 23.4352 10.2247 22.9994C10.0969 22.6708 9.94469 22.1769 9.90328 21.2669C9.85855 20.283 9.84961 19.9874 9.84961 17.495C9.84961 15.0026 9.85855 14.7086 9.90328 13.7247C9.94489 12.8147 10.0969 12.3208 10.2247 11.9918C10.3939 11.5562 10.5965 11.2451 10.9231 10.9185C11.2498 10.5918 11.5609 10.3896 11.9965 10.22C12.3255 10.0917 12.8196 9.94001 13.7296 9.8982C14.5906 9.85931 14.9243 9.84765 16.6638 9.8457V9.84804ZM22.4832 11.3978C21.8648 11.3978 21.3632 11.8989 21.3632 12.5174C21.3632 13.1357 21.8648 13.6374 22.4832 13.6374C23.1015 13.6374 23.6032 13.1357 23.6032 12.5174C23.6032 11.8991 23.1015 11.3974 22.4832 11.3974V11.3978ZM12.708 17.4995C12.708 14.8525 14.8541 12.7064 17.5011 12.7064H17.5009C20.1479 12.7064 22.2934 14.8525 22.2934 17.4995C22.2934 20.1465 20.1481 22.2916 17.5011 22.2916C14.8541 22.2916 12.708 20.1465 12.708 17.4995Z" fill="#43607C"/>
<path d="M17.5008 14.3887C19.2189 14.3887 20.6119 15.7815 20.6119 17.4998C20.6119 19.2179 19.2189 20.611 17.5008 20.611C15.7825 20.611 14.3896 19.2179 14.3896 17.4998C14.3896 15.7815 15.7825 14.3887 17.5008 14.3887Z" fill="#43607C"/>
</svg>
